<svg width="980" height="817" viewBox="0 0 980 817" fill="none" xmlns="http://www.w3.org/2000/svg">
<line x1="106.959" y1="295.917" x2="755.214" y2="295.917" stroke="url(#paint0_linear_209_104)" stroke-width="5"/>
<line x1="402.977" y1="161.267" x2="234.255" y2="666.394" stroke="url(#paint1_linear_209_104)" stroke-width="5"/>
<line x1="796.119" y1="161.192" x2="635.395" y2="697.717" stroke="url(#paint2_linear_209_104)" stroke-width="5"/>
<line x1="58.9707" y1="554.5" x2="789.971" y2="554.5" stroke="url(#paint3_linear_209_104)" stroke-width="5"/>
<path d="M544.973 214.203C546.441 214.422 547.785 214.828 549.004 215.422C550.223 216.016 551.27 216.766 552.145 217.672C553.051 218.547 553.738 219.547 554.207 220.672C554.707 221.797 554.957 223 554.957 224.281C554.957 225.594 554.723 226.812 554.254 227.938C553.785 229.062 553.129 230.062 552.285 230.938C551.441 231.812 550.426 232.562 549.238 233.188C548.051 233.781 546.754 234.188 545.348 234.406V243.5C546.754 243.438 548.035 243.391 549.191 243.359C550.348 243.328 551.301 243.297 552.051 243.266C554.145 243.172 556.27 243.031 558.426 242.844C560.613 242.625 562.551 242.391 564.238 242.141L563.676 245.984C562.426 245.922 560.801 245.875 558.801 245.844C556.801 245.812 554.754 245.781 552.66 245.75C551.785 245.75 550.723 245.766 549.473 245.797C548.223 245.797 546.863 245.828 545.395 245.891C543.957 245.922 542.473 245.969 540.941 246.031C539.441 246.062 538.004 246.109 536.629 246.172C535.254 246.203 534.004 246.25 532.879 246.312C531.785 246.375 530.926 246.422 530.301 246.453C529.113 246.516 527.848 246.609 526.504 246.734C525.16 246.859 523.91 247 522.754 247.156L521.254 243.031C522.66 243.188 524.145 243.328 525.707 243.453C527.301 243.547 528.816 243.625 530.254 243.688C530.816 243.719 531.488 243.734 532.27 243.734C533.082 243.734 533.957 243.734 534.895 243.734C535.832 243.734 536.816 243.734 537.848 243.734C538.879 243.703 539.91 243.672 540.941 243.641V234.5C539.441 234.344 538.051 233.984 536.77 233.422C535.52 232.828 534.441 232.094 533.535 231.219C532.629 230.312 531.91 229.281 531.379 228.125C530.879 226.938 530.629 225.656 530.629 224.281C530.629 222.938 530.895 221.672 531.426 220.484C531.957 219.297 532.691 218.25 533.629 217.344C534.598 216.438 535.738 215.703 537.051 215.141C538.363 214.578 539.785 214.234 541.316 214.109C541.316 213.641 541.176 213.266 540.895 212.984C540.613 212.703 540.02 212.438 539.113 212.188L540.004 210.781C540.379 210.875 540.801 210.969 541.27 211.062C541.738 211.156 542.223 211.25 542.723 211.344C543.254 211.438 543.77 211.531 544.27 211.625C544.801 211.719 545.27 211.812 545.676 211.906C545.551 212.188 545.41 212.531 545.254 212.938C545.129 213.344 545.035 213.766 544.973 214.203ZM550.176 224.281C550.176 223.188 549.973 222.156 549.566 221.188C549.191 220.219 548.676 219.391 548.02 218.703C547.363 217.984 546.582 217.422 545.676 217.016C544.801 216.609 543.848 216.406 542.816 216.406C541.816 216.406 540.863 216.609 539.957 217.016C539.082 217.422 538.316 217.984 537.66 218.703C537.004 219.391 536.473 220.219 536.066 221.188C535.691 222.156 535.504 223.188 535.504 224.281C535.504 225.406 535.691 226.438 536.066 227.375C536.473 228.312 537.004 229.125 537.66 229.812C538.316 230.5 539.082 231.047 539.957 231.453C540.863 231.828 541.816 232.016 542.816 232.016C543.848 232.016 544.801 231.828 545.676 231.453C546.582 231.047 547.363 230.5 548.02 229.812C548.707 229.125 549.238 228.312 549.613 227.375C549.988 226.438 550.176 225.406 550.176 224.281ZM601.645 239.938C601.645 240.906 601.613 242.031 601.551 243.312C601.52 244.562 601.473 245.828 601.41 247.109C601.348 248.359 601.27 249.547 601.176 250.672C601.082 251.828 600.988 252.75 600.895 253.438L597.66 253.859C597.598 253.359 597.535 252.688 597.473 251.844C597.441 251 597.395 250.094 597.332 249.125C597.301 248.188 597.27 247.219 597.238 246.219C597.238 245.188 597.238 244.219 597.238 243.312V213.875C597.238 212.906 596.785 212.125 595.879 211.531C595.004 210.906 593.535 210.344 591.473 209.844L592.176 208.109C592.957 208.203 593.801 208.328 594.707 208.484C595.645 208.609 596.566 208.766 597.473 208.953C598.379 209.109 599.238 209.266 600.051 209.422C600.863 209.578 601.566 209.703 602.16 209.797C602.098 210.078 602.035 210.422 601.973 210.828C601.91 211.234 601.848 211.656 601.785 212.094C601.754 212.5 601.723 212.875 601.691 213.219C601.66 213.562 601.645 213.812 601.645 213.969V228.547C603.02 228.453 604.551 228.328 606.238 228.172C607.926 227.984 609.473 227.766 610.879 227.516L610.457 231.312C609.895 231.281 609.238 231.266 608.488 231.266C607.77 231.266 607.004 231.266 606.191 231.266C605.41 231.266 604.629 231.266 603.848 231.266C603.066 231.266 602.332 231.266 601.645 231.266V239.938ZM591.238 217.484C590.301 220.203 589.066 222.828 587.535 225.359C586.035 227.891 584.301 230.266 582.332 232.484C580.363 234.703 578.207 236.734 575.863 238.578C573.551 240.422 571.129 242.016 568.598 243.359L567.285 241.906C569.504 240.594 571.582 239.047 573.52 237.266C575.488 235.453 577.238 233.547 578.77 231.547C580.332 229.547 581.66 227.5 582.754 225.406C583.879 223.312 584.723 221.312 585.285 219.406C584.816 219.406 584.223 219.422 583.504 219.453C582.816 219.484 582.098 219.516 581.348 219.547C580.598 219.547 579.879 219.562 579.191 219.594C578.504 219.625 577.941 219.641 577.504 219.641C577.16 219.641 576.707 219.672 576.145 219.734C575.582 219.797 574.973 219.859 574.316 219.922C573.691 219.984 573.051 220.062 572.395 220.156C571.738 220.219 571.145 220.297 570.613 220.391L568.176 216.594C568.582 216.656 569.098 216.734 569.723 216.828C570.348 216.891 571.004 216.953 571.691 217.016C572.379 217.078 573.051 217.141 573.707 217.203C574.395 217.234 575.004 217.25 575.535 217.25C576.66 217.25 577.863 217.234 579.145 217.203C580.457 217.141 581.738 217.062 582.988 216.969C584.27 216.875 585.488 216.75 586.645 216.594C587.832 216.438 588.863 216.266 589.738 216.078L591.238 217.484ZM637.645 230.141C637.582 231.141 637.285 232.078 636.754 232.953C636.254 233.797 635.566 234.547 634.691 235.203C633.816 235.828 632.801 236.328 631.645 236.703C630.488 237.078 629.238 237.266 627.895 237.266C626.551 237.266 625.285 237.062 624.098 236.656C622.941 236.25 621.926 235.703 621.051 235.016C620.176 234.297 619.488 233.484 618.988 232.578C618.488 231.641 618.238 230.656 618.238 229.625C618.238 228.5 618.488 227.484 618.988 226.578C619.52 225.641 620.223 224.828 621.098 224.141C621.973 223.453 622.988 222.922 624.145 222.547C625.332 222.172 626.582 221.984 627.895 221.984C630.207 221.984 632.16 222.469 633.754 223.438C635.348 224.375 636.473 225.547 637.129 226.953C637.785 227.047 638.441 227.125 639.098 227.188C639.785 227.219 640.395 227.219 640.926 227.188C641.52 227.188 642.176 227.188 642.895 227.188C643.645 227.156 644.379 227.125 645.098 227.094V213.875C645.098 212.906 644.629 212.125 643.691 211.531C642.785 210.906 641.301 210.344 639.238 209.844L640.082 208.109C640.832 208.203 641.66 208.328 642.566 208.484C643.473 208.609 644.379 208.766 645.285 208.953C646.191 209.109 647.051 209.266 647.863 209.422C648.707 209.578 649.441 209.703 650.066 209.797C650.004 210.078 649.926 210.422 649.832 210.828C649.77 211.234 649.707 211.656 649.645 212.094C649.613 212.5 649.582 212.875 649.551 213.219C649.52 213.562 649.504 213.812 649.504 213.969V233.188C649.504 233.906 649.473 234.672 649.41 235.484C649.379 236.297 649.332 237.125 649.27 237.969C649.207 238.781 649.113 239.562 648.988 240.312C648.895 241.031 648.801 241.656 648.707 242.188L645.473 242.703C645.41 242.328 645.363 241.812 645.332 241.156C645.301 240.5 645.254 239.797 645.191 239.047C645.16 238.266 645.129 237.5 645.098 236.75C645.098 235.969 645.098 235.297 645.098 234.734V229.391C643.723 229.453 642.379 229.562 641.066 229.719C639.785 229.844 638.645 229.984 637.645 230.141ZM622.926 229.438C622.926 230.188 623.051 230.891 623.301 231.547C623.582 232.172 623.941 232.734 624.379 233.234C624.848 233.734 625.379 234.125 625.973 234.406C626.598 234.688 627.27 234.828 627.988 234.828C628.707 234.828 629.379 234.688 630.004 234.406C630.629 234.125 631.16 233.75 631.598 233.281C632.066 232.781 632.426 232.203 632.676 231.547C632.957 230.891 633.098 230.188 633.098 229.438C633.098 228.75 632.973 228.078 632.723 227.422C632.473 226.766 632.113 226.203 631.645 225.734C631.207 225.234 630.676 224.844 630.051 224.562C629.426 224.25 628.738 224.094 627.988 224.094C627.27 224.094 626.598 224.234 625.973 224.516C625.379 224.766 624.848 225.125 624.379 225.594C623.941 226.062 623.582 226.625 623.301 227.281C623.051 227.938 622.926 228.656 622.926 229.438ZM634.223 214.391C633.691 214.391 633.113 214.391 632.488 214.391C631.863 214.391 631.223 214.406 630.566 214.438C629.941 214.438 629.332 214.453 628.738 214.484C628.176 214.484 627.691 214.484 627.285 214.484C627.066 214.484 626.738 214.5 626.301 214.531C625.895 214.531 625.441 214.562 624.941 214.625C624.473 214.656 623.988 214.703 623.488 214.766C622.988 214.797 622.551 214.844 622.176 214.906L620.254 211.391C620.629 211.484 621.098 211.578 621.66 211.672C622.223 211.734 622.801 211.812 623.395 211.906C624.02 211.969 624.613 212.031 625.176 212.094C625.77 212.125 626.27 212.141 626.676 212.141C627.051 212.141 627.551 212.125 628.176 212.094C628.832 212.062 629.535 212.016 630.285 211.953C631.066 211.859 631.863 211.781 632.676 211.719C633.488 211.625 634.254 211.531 634.973 211.438L634.223 214.391ZM641.16 219.734C640.441 219.734 639.566 219.734 638.535 219.734C637.504 219.734 636.379 219.75 635.16 219.781C633.973 219.812 632.738 219.844 631.457 219.875C630.176 219.906 628.941 219.938 627.754 219.969C626.566 220 625.473 220.031 624.473 220.062C623.473 220.094 622.645 220.125 621.988 220.156C621.613 220.188 621.113 220.234 620.488 220.297C619.895 220.328 619.27 220.375 618.613 220.438C617.957 220.5 617.316 220.562 616.691 220.625C616.098 220.688 615.613 220.75 615.238 220.812L613.457 216.969C613.863 217.062 614.379 217.156 615.004 217.25C615.629 217.344 616.27 217.422 616.926 217.484C617.582 217.547 618.223 217.609 618.848 217.672C619.504 217.703 620.051 217.719 620.488 217.719C621.551 217.719 622.957 217.703 624.707 217.672C626.488 217.609 628.379 217.531 630.379 217.438C632.379 217.312 634.379 217.156 636.379 216.969C638.41 216.781 640.191 216.547 641.723 216.266L641.16 219.734ZM651.988 251.656C650.082 251.625 648.129 251.609 646.129 251.609C644.16 251.609 642.238 251.625 640.363 251.656C638.488 251.688 636.691 251.734 634.973 251.797C633.254 251.859 631.707 251.938 630.332 252.031C629.207 252.094 628.41 251.875 627.941 251.375C627.473 250.875 627.238 250.281 627.238 249.594V244.719C627.238 244.031 627.207 243.484 627.145 243.078C627.082 242.672 626.91 242.328 626.629 242.047C626.348 241.766 625.926 241.531 625.363 241.344C624.832 241.125 624.082 240.891 623.113 240.641L623.863 238.906C624.332 238.969 624.926 239.047 625.645 239.141C626.363 239.234 627.113 239.344 627.895 239.469C628.676 239.562 629.426 239.656 630.145 239.75C630.895 239.844 631.504 239.922 631.973 239.984C631.91 240.359 631.832 240.922 631.738 241.672C631.676 242.422 631.645 243.078 631.645 243.641V248.094C631.645 248.688 631.738 249.047 631.926 249.172C632.113 249.328 632.535 249.422 633.191 249.453C634.348 249.484 635.754 249.453 637.41 249.359C639.098 249.297 640.832 249.188 642.613 249.031C644.426 248.906 646.207 248.75 647.957 248.562C649.707 248.375 651.254 248.188 652.598 248L651.988 251.656Z" fill="#693A26"/>
<circle cx="588.121" cy="295" r="20" fill="#693A26"/>
<path d="M373.659 122.32H374.931V143.704H373.659V122.32ZM369.579 131.104H374.043V132.208H369.579V131.104ZM368.786 122.848H369.987V142.552H368.786V122.848ZM357.771 137.056H359.09C360.243 137.056 361.259 137.04 362.139 137.008C363.035 136.976 363.875 136.912 364.659 136.816C365.459 136.72 366.259 136.576 367.059 136.384L367.227 137.488C366.379 137.68 365.555 137.824 364.755 137.92C363.955 138.016 363.099 138.08 362.187 138.112C361.291 138.144 360.259 138.16 359.09 138.16H357.771V137.056ZM357.771 124.984H365.739V126.064H359.043V137.512H357.771V124.984ZM395.065 122.344H396.361V138.112H395.065V122.344ZM382.921 142.072H397.081V143.176H382.921V142.072ZM382.921 136.48H384.193V142.36H382.921V136.48ZM384.985 123.904C386.025 123.904 386.953 124.12 387.769 124.552C388.585 124.984 389.233 125.592 389.713 126.376C390.193 127.144 390.433 128.04 390.433 129.064C390.433 130.072 390.193 130.968 389.713 131.752C389.233 132.536 388.585 133.152 387.769 133.6C386.953 134.032 386.025 134.248 384.985 134.248C383.945 134.248 383.017 134.032 382.201 133.6C381.385 133.152 380.737 132.536 380.257 131.752C379.777 130.968 379.537 130.072 379.537 129.064C379.537 128.04 379.777 127.144 380.257 126.376C380.737 125.592 381.385 124.984 382.201 124.552C383.017 124.12 383.945 123.904 384.985 123.904ZM384.985 125.008C384.185 125.008 383.465 125.184 382.825 125.536C382.201 125.888 381.705 126.368 381.337 126.976C380.985 127.584 380.809 128.28 380.809 129.064C380.809 129.832 380.985 130.52 381.337 131.128C381.705 131.736 382.201 132.216 382.825 132.568C383.465 132.92 384.185 133.096 384.985 133.096C385.785 133.096 386.505 132.92 387.145 132.568C387.785 132.216 388.281 131.736 388.633 131.128C389.001 130.52 389.185 129.832 389.185 129.064C389.185 128.28 389.001 127.584 388.633 126.976C388.281 126.368 387.785 125.888 387.145 125.536C386.505 125.184 385.785 125.008 384.985 125.008ZM406.943 124.288H408.023V128.56C408.023 129.696 407.847 130.808 407.495 131.896C407.159 132.968 406.695 133.976 406.103 134.92C405.511 135.864 404.847 136.696 404.111 137.416C403.375 138.136 402.623 138.704 401.855 139.12L401.015 138.064C401.735 137.712 402.447 137.208 403.151 136.552C403.855 135.88 404.487 135.12 405.047 134.272C405.623 133.408 406.079 132.488 406.415 131.512C406.767 130.536 406.943 129.552 406.943 128.56V124.288ZM407.111 124.288H408.191V128.56C408.191 129.536 408.359 130.496 408.695 131.44C409.047 132.368 409.511 133.256 410.087 134.104C410.663 134.936 411.303 135.664 412.007 136.288C412.711 136.912 413.423 137.4 414.143 137.752L413.327 138.76C412.575 138.376 411.831 137.84 411.095 137.152C410.359 136.448 409.687 135.64 409.079 134.728C408.487 133.816 408.007 132.84 407.639 131.8C407.287 130.744 407.111 129.664 407.111 128.56V124.288ZM417.119 122.296H418.391V143.728H417.119V122.296ZM428.709 124.552H429.765V126.52C429.765 127.8 429.501 128.976 428.973 130.048C428.445 131.12 427.733 132.048 426.837 132.832C425.941 133.616 424.941 134.224 423.837 134.656L423.165 133.624C424.173 133.256 425.093 132.728 425.925 132.04C426.773 131.336 427.445 130.512 427.941 129.568C428.453 128.624 428.709 127.608 428.709 126.52V124.552ZM428.901 124.552H429.981V126.496C429.981 127.488 430.221 128.416 430.701 129.28C431.181 130.144 431.821 130.904 432.621 131.56C433.437 132.2 434.341 132.696 435.333 133.048L434.709 134.056C433.621 133.672 432.637 133.112 431.757 132.376C430.893 131.64 430.197 130.768 429.669 129.76C429.157 128.752 428.901 127.664 428.901 126.496V124.552ZM423.621 123.976H434.997V125.08H423.621V123.976ZM438.309 122.32H439.581V135.328H438.309V122.32ZM439.245 128.056H442.941V129.16H439.245V128.056ZM432.861 136.024C434.301 136.024 435.533 136.176 436.557 136.48C437.597 136.784 438.389 137.216 438.933 137.776C439.493 138.32 439.773 139 439.773 139.816C439.773 140.616 439.493 141.304 438.933 141.88C438.389 142.456 437.597 142.888 436.557 143.176C435.533 143.48 434.301 143.632 432.861 143.632C431.437 143.632 430.205 143.48 429.165 143.176C428.141 142.888 427.349 142.456 426.789 141.88C426.245 141.304 425.973 140.616 425.973 139.816C425.973 139 426.245 138.32 426.789 137.776C427.349 137.216 428.141 136.784 429.165 136.48C430.205 136.176 431.437 136.024 432.861 136.024ZM432.861 137.08C431.725 137.08 430.733 137.192 429.885 137.416C429.037 137.64 428.381 137.96 427.917 138.376C427.453 138.776 427.221 139.256 427.221 139.816C427.221 140.376 427.453 140.864 427.917 141.28C428.381 141.696 429.037 142.016 429.885 142.24C430.733 142.464 431.725 142.576 432.861 142.576C434.013 142.576 435.013 142.464 435.861 142.24C436.725 142.016 437.381 141.696 437.829 141.28C438.293 140.864 438.525 140.376 438.525 139.816C438.525 139.256 438.293 138.776 437.829 138.376C437.381 137.96 436.725 137.64 435.861 137.416C435.013 137.192 434.013 137.08 432.861 137.08Z" fill="#816458"/>
<path d="M199.999 676.362H209.647V677.442H199.999V676.362ZM203.575 680.898H204.823V685.914H203.575V680.898ZM209.119 676.362H210.367V677.37C210.367 678.01 210.343 678.826 210.295 679.818C210.247 680.794 210.071 681.938 209.767 683.25L208.495 683.13C208.799 681.802 208.975 680.674 209.023 679.746C209.087 678.802 209.119 678.01 209.119 677.37V676.362ZM213.799 674.922H215.095V688.458H213.799V674.922ZM214.375 681.09H218.455V682.194H214.375V681.09ZM198.847 686.634L198.655 685.482C199.967 685.482 201.391 685.474 202.927 685.458C204.479 685.426 206.047 685.362 207.631 685.266C209.231 685.154 210.759 685.002 212.215 684.81L212.311 685.794C210.823 686.018 209.287 686.194 207.703 686.322C206.119 686.45 204.567 686.538 203.047 686.586C201.527 686.618 200.127 686.634 198.847 686.634ZM208.375 688.722C209.831 688.722 211.071 688.874 212.095 689.178C213.119 689.466 213.911 689.89 214.471 690.45C215.031 690.994 215.311 691.666 215.311 692.466C215.311 693.266 215.031 693.946 214.471 694.506C213.911 695.066 213.119 695.49 212.095 695.778C211.071 696.082 209.831 696.234 208.375 696.234C206.951 696.234 205.719 696.082 204.679 695.778C203.655 695.49 202.863 695.066 202.303 694.506C201.759 693.946 201.487 693.266 201.487 692.466C201.487 691.666 201.759 690.994 202.303 690.45C202.863 689.89 203.655 689.466 204.679 689.178C205.719 688.874 206.951 688.722 208.375 688.722ZM208.375 689.778C206.663 689.778 205.295 690.018 204.271 690.498C203.247 690.978 202.735 691.634 202.735 692.466C202.735 693.298 203.247 693.962 204.271 694.458C205.295 694.938 206.663 695.178 208.375 695.178C210.103 695.178 211.471 694.938 212.479 694.458C213.503 693.962 214.015 693.298 214.015 692.466C214.015 691.634 213.503 690.978 212.479 690.498C211.471 690.018 210.103 689.778 208.375 689.778ZM229.757 676.866H230.885V677.946C230.885 678.714 230.717 679.434 230.381 680.106C230.045 680.778 229.589 681.394 229.013 681.954C228.437 682.514 227.789 683.01 227.069 683.442C226.349 683.874 225.605 684.234 224.837 684.522C224.069 684.81 223.317 685.026 222.581 685.17L222.053 684.138C222.693 684.042 223.365 683.866 224.069 683.61C224.773 683.338 225.461 683.018 226.133 682.65C226.805 682.266 227.413 681.834 227.957 681.354C228.517 680.858 228.957 680.33 229.277 679.77C229.597 679.194 229.757 678.586 229.757 677.946V676.866ZM230.021 676.866H231.125V677.946C231.125 678.586 231.285 679.194 231.605 679.77C231.941 680.33 232.381 680.858 232.925 681.354C233.469 681.834 234.077 682.266 234.749 682.65C235.421 683.018 236.109 683.338 236.813 683.61C237.533 683.866 238.205 684.042 238.829 684.138L238.325 685.17C237.605 685.026 236.853 684.81 236.069 684.522C235.301 684.234 234.557 683.874 233.837 683.442C233.117 683.01 232.469 682.514 231.893 681.954C231.317 681.394 230.861 680.778 230.525 680.106C230.189 679.434 230.021 678.714 230.021 677.946V676.866ZM229.805 687.954H231.053V696.282H229.805V687.954ZM220.781 687.33H240.125V688.434H220.781V687.33ZM222.653 676.386H238.205V677.466H222.653V676.386ZM248.547 678.858H249.603V680.058C249.603 681.322 249.339 682.49 248.811 683.562C248.283 684.618 247.571 685.53 246.675 686.298C245.779 687.066 244.787 687.666 243.699 688.098L243.051 687.09C244.043 686.722 244.955 686.202 245.787 685.53C246.619 684.842 247.283 684.034 247.779 683.106C248.291 682.162 248.547 681.146 248.547 680.058V678.858ZM248.739 678.858H249.795V680.058C249.795 681.082 250.051 682.042 250.563 682.938C251.075 683.818 251.755 684.578 252.603 685.218C253.467 685.858 254.395 686.338 255.387 686.658L254.739 687.69C253.651 687.306 252.651 686.746 251.739 686.01C250.827 685.274 250.099 684.402 249.555 683.394C249.011 682.386 248.739 681.274 248.739 680.058V678.858ZM243.459 677.994H254.835V679.074H243.459V677.994ZM248.547 675.042H249.819V678.378H248.547V675.042ZM254.091 681.714H259.755V682.818H254.091V681.714ZM258.987 674.946H260.283V690.978H258.987V674.946ZM246.915 694.674H260.931V695.778H246.915V694.674ZM246.915 689.49H248.187V695.082H246.915V689.49Z" fill="#816458"/>
<path d="M806.482 557.267H825.898V558.347H806.482V557.267ZM815.626 557.939H816.898V563.099H815.626V557.939ZM809.05 547.163H823.33V554.411H809.05V547.163ZM822.082 548.219H810.322V553.355H822.082V548.219ZM809.074 565.859H823.738V566.963H809.074V565.859ZM809.074 560.891H810.37V566.267H809.074V560.891ZM834.512 558.899H835.784V562.379H834.512V558.899ZM843.512 546.107H844.76V567.491H843.512V546.107ZM844.424 555.419H848.48V556.547H844.424V555.419ZM828.584 563.123L828.32 561.971C829.632 561.971 831.064 561.963 832.616 561.947C834.168 561.915 835.76 561.851 837.392 561.755C839.024 561.659 840.584 561.499 842.072 561.275L842.168 562.259C840.616 562.531 839.032 562.731 837.416 562.859C835.816 562.971 834.264 563.043 832.76 563.075C831.256 563.107 829.864 563.123 828.584 563.123ZM828.68 548.819H841.592V549.923H828.68V548.819ZM835.136 551.387C836.128 551.387 836.992 551.555 837.728 551.891C838.464 552.211 839.04 552.667 839.456 553.259C839.872 553.835 840.08 554.531 840.08 555.347C840.08 556.131 839.872 556.819 839.456 557.411C839.04 558.003 838.464 558.459 837.728 558.779C836.992 559.099 836.128 559.259 835.136 559.259C834.16 559.259 833.296 559.099 832.544 558.779C831.808 558.459 831.24 558.003 830.84 557.411C830.44 556.819 830.24 556.131 830.24 555.347C830.24 554.531 830.44 553.835 830.84 553.259C831.24 552.667 831.808 552.211 832.544 551.891C833.296 551.555 834.16 551.387 835.136 551.387ZM835.136 552.443C834.016 552.443 833.112 552.715 832.424 553.259C831.752 553.787 831.416 554.483 831.416 555.347C831.416 556.179 831.752 556.867 832.424 557.411C833.112 557.939 834.016 558.203 835.136 558.203C836.256 558.203 837.152 557.939 837.824 557.411C838.512 556.867 838.856 556.179 838.856 555.347C838.856 554.483 838.512 553.787 837.824 553.259C837.152 552.715 836.256 552.443 835.136 552.443ZM834.512 546.083H835.784V549.419H834.512V546.083ZM857.646 547.739C858.75 547.739 859.726 547.947 860.574 548.363C861.422 548.763 862.078 549.331 862.542 550.067C863.022 550.803 863.262 551.659 863.262 552.635C863.262 553.595 863.022 554.451 862.542 555.203C862.078 555.939 861.422 556.515 860.574 556.931C859.726 557.331 858.75 557.531 857.646 557.531C856.542 557.531 855.566 557.331 854.718 556.931C853.87 556.515 853.206 555.939 852.726 555.203C852.246 554.451 852.006 553.595 852.006 552.635C852.006 551.659 852.246 550.803 852.726 550.067C853.206 549.331 853.87 548.763 854.718 548.363C855.566 547.947 856.542 547.739 857.646 547.739ZM857.646 548.867C856.798 548.867 856.038 549.035 855.366 549.371C854.71 549.691 854.19 550.131 853.806 550.691C853.438 551.251 853.254 551.899 853.254 552.635C853.254 553.355 853.438 554.003 853.806 554.579C854.19 555.155 854.71 555.603 855.366 555.923C856.038 556.243 856.798 556.403 857.646 556.403C858.494 556.403 859.246 556.243 859.902 555.923C860.558 555.603 861.07 555.155 861.438 554.579C861.822 554.003 862.014 553.355 862.014 552.635C862.014 551.899 861.822 551.251 861.438 550.691C861.07 550.131 860.558 549.691 859.902 549.371C859.246 549.035 858.494 548.867 857.646 548.867ZM866.55 546.083H867.846V567.515H866.55V546.083ZM851.022 562.619L850.806 561.467C852.134 561.467 853.598 561.459 855.198 561.443C856.798 561.411 858.438 561.347 860.118 561.251C861.814 561.139 863.454 560.963 865.038 560.723L865.158 561.683C863.526 561.987 861.862 562.211 860.166 562.355C858.486 562.483 856.862 562.563 855.294 562.595C853.742 562.611 852.318 562.619 851.022 562.619ZM889.317 552.227H894.981V553.307H889.317V552.227ZM894.165 546.131H895.461V561.851H894.165V546.131ZM882.093 565.859H896.109V566.963H882.093V565.859ZM882.093 560.411H883.365V566.291H882.093V560.411ZM883.797 548.675H884.877V550.643C884.877 551.907 884.605 553.091 884.061 554.195C883.517 555.283 882.789 556.227 881.877 557.027C880.981 557.827 879.997 558.451 878.925 558.899L878.229 557.867C878.981 557.579 879.685 557.203 880.341 556.739C881.013 556.259 881.605 555.707 882.117 555.083C882.645 554.443 883.053 553.747 883.341 552.995C883.645 552.243 883.797 551.459 883.797 550.643V548.675ZM884.013 548.675H885.093V550.619C885.093 551.595 885.333 552.531 885.813 553.427C886.309 554.307 886.965 555.091 887.781 555.779C888.613 556.451 889.517 556.971 890.493 557.339L889.797 558.347C888.741 557.931 887.773 557.347 886.893 556.595C886.029 555.827 885.333 554.931 884.805 553.907C884.277 552.883 884.013 551.787 884.013 550.619V548.675ZM878.709 548.027H890.085V549.131H878.709V548.027ZM915.307 546.107H916.603V559.043H915.307V546.107ZM916.243 551.963H919.939V553.067H916.243V551.963ZM909.859 559.523C911.299 559.523 912.531 559.683 913.555 560.003C914.595 560.307 915.387 560.755 915.931 561.347C916.491 561.939 916.771 562.651 916.771 563.483C916.771 564.315 916.491 565.027 915.931 565.619C915.387 566.211 914.595 566.659 913.555 566.963C912.531 567.267 911.299 567.419 909.859 567.419C908.435 567.419 907.203 567.267 906.163 566.963C905.139 566.659 904.347 566.211 903.787 565.619C903.243 565.027 902.971 564.315 902.971 563.483C902.971 562.651 903.243 561.939 903.787 561.347C904.347 560.755 905.139 560.307 906.163 560.003C907.203 559.683 908.435 559.523 909.859 559.523ZM909.859 560.603C908.723 560.603 907.731 560.723 906.883 560.963C906.035 561.187 905.371 561.515 904.891 561.947C904.427 562.379 904.195 562.891 904.195 563.483C904.195 564.075 904.427 564.587 904.891 565.019C905.371 565.435 906.035 565.763 906.883 566.003C907.731 566.243 908.723 566.363 909.859 566.363C911.011 566.363 912.011 566.243 912.859 566.003C913.723 565.763 914.387 565.435 914.851 565.019C915.315 564.587 915.547 564.075 915.547 563.483C915.547 562.891 915.315 562.379 914.851 561.947C914.387 561.515 913.723 561.187 912.859 560.963C912.011 560.723 911.011 560.603 909.859 560.603ZM901.219 555.899H902.803C904.227 555.899 905.491 555.883 906.595 555.851C907.699 555.803 908.739 555.723 909.715 555.611C910.691 555.499 911.683 555.347 912.691 555.155L912.859 556.235C911.803 556.427 910.779 556.579 909.787 556.691C908.811 556.803 907.763 556.883 906.643 556.931C905.523 556.979 904.243 557.003 902.803 557.003H901.219V555.899ZM901.219 547.859H910.579V548.939H902.467V556.595H901.219V547.859Z" fill="#816458"/>
<path d="M753.174 128.44H758.142V129.496H753.174V128.44ZM752.982 133.816H758.142V134.896H752.982V133.816ZM761.622 122.32H762.87V143.704H761.622V122.32ZM757.398 122.92H758.646V142.528H757.398V122.92ZM752.67 125.128H753.894C753.894 126.904 753.606 128.64 753.03 130.336C752.47 132.016 751.59 133.592 750.39 135.064C749.19 136.536 747.654 137.848 745.782 139L744.99 138.04C746.702 137.016 748.126 135.832 749.262 134.488C750.398 133.128 751.246 131.672 751.806 130.12C752.382 128.568 752.67 126.968 752.67 125.32V125.128ZM745.758 125.128H753.27V126.232H745.758V125.128ZM783.004 122.32H784.3V135.016H783.004V122.32ZM768.028 132.712H769.66C770.892 132.712 772.06 132.696 773.164 132.664C774.284 132.616 775.388 132.544 776.476 132.448C777.58 132.336 778.732 132.184 779.932 131.992L780.1 133.096C778.852 133.272 777.668 133.416 776.548 133.528C775.444 133.64 774.332 133.72 773.212 133.768C772.108 133.8 770.924 133.816 769.66 133.816H768.028V132.712ZM767.956 123.64H777.58V129.112H769.252V133.384H768.028V128.056H776.332V124.72H767.956V123.64ZM770.74 136.312H784.3V143.392H770.74V136.312ZM783.052 137.368H771.988V142.312H783.052V137.368ZM803.299 134.44H804.571V140.032H803.299V134.44ZM803.923 123.904C805.427 123.904 806.747 124.128 807.883 124.576C809.035 125.024 809.939 125.656 810.595 126.472C811.251 127.272 811.579 128.224 811.579 129.328C811.579 130.416 811.251 131.368 810.595 132.184C809.939 133 809.035 133.632 807.883 134.08C806.747 134.528 805.427 134.752 803.923 134.752C802.451 134.752 801.139 134.528 799.987 134.08C798.835 133.632 797.931 133 797.275 132.184C796.619 131.368 796.291 130.416 796.291 129.328C796.291 128.224 796.619 127.272 797.275 126.472C797.931 125.656 798.835 125.024 799.987 124.576C801.139 124.128 802.451 123.904 803.923 123.904ZM803.923 124.96C802.707 124.96 801.611 125.144 800.635 125.512C799.659 125.88 798.891 126.392 798.331 127.048C797.771 127.704 797.491 128.464 797.491 129.328C797.491 130.176 797.771 130.936 798.331 131.608C798.891 132.264 799.659 132.784 800.635 133.168C801.611 133.536 802.707 133.72 803.923 133.72C805.155 133.72 806.259 133.536 807.235 133.168C808.211 132.784 808.979 132.264 809.539 131.608C810.099 130.936 810.379 130.176 810.379 129.328C810.379 128.464 810.099 127.704 809.539 127.048C808.979 126.392 808.211 125.88 807.235 125.512C806.259 125.144 805.155 124.96 803.923 124.96ZM794.275 139.72H813.691V140.824H794.275V139.72ZM832.481 122.32H833.753V143.704H832.481V122.32ZM826.985 131.104H833.009V132.208H826.985V131.104ZM825.737 124.672H826.985C826.985 126.128 826.801 127.56 826.433 128.968C826.065 130.36 825.489 131.688 824.705 132.952C823.937 134.216 822.937 135.4 821.705 136.504C820.473 137.592 818.993 138.56 817.265 139.408L816.497 138.424C818.081 137.64 819.449 136.76 820.601 135.784C821.769 134.792 822.729 133.712 823.481 132.544C824.233 131.376 824.793 130.152 825.161 128.872C825.545 127.576 825.737 126.232 825.737 124.84V124.672ZM817.385 124.672H826.409V125.752H817.385V124.672ZM854.559 122.296H855.807V143.728H854.559V122.296ZM839.727 137.344H841.431C842.599 137.344 843.751 137.328 844.887 137.296C846.023 137.248 847.191 137.168 848.391 137.056C849.591 136.928 850.863 136.76 852.207 136.552L852.351 137.632C850.287 137.952 848.391 138.168 846.663 138.28C844.951 138.392 843.207 138.448 841.431 138.448H839.727V137.344ZM839.679 124.408H849.423V131.68H840.999V137.776H839.727V130.576H848.151V125.512H839.679V124.408Z" fill="#816458"/>
<circle cx="780.29" cy="311.118" r="10" fill="#816458"/>
<path d="M820.136 301.462H821.432V317.182H820.136V301.462ZM807.992 321.19H822.152V322.294H807.992V321.19ZM807.992 315.766H809.264V321.646H807.992V315.766ZM809.96 302.638H811.016V304.846C811.016 306.238 810.752 307.542 810.224 308.758C809.696 309.958 808.992 311.014 808.112 311.926C807.232 312.822 806.248 313.51 805.16 313.99L804.44 312.958C805.448 312.526 806.368 311.91 807.2 311.11C808.032 310.294 808.696 309.35 809.192 308.278C809.704 307.206 809.96 306.062 809.96 304.846V302.638ZM810.152 302.638H811.208V304.846C811.208 305.726 811.352 306.566 811.64 307.366C811.944 308.15 812.352 308.878 812.864 309.55C813.392 310.222 813.984 310.814 814.64 311.326C815.312 311.838 816.024 312.238 816.776 312.526L816.08 313.558C815.008 313.094 814.016 312.438 813.104 311.59C812.192 310.742 811.472 309.742 810.944 308.59C810.416 307.438 810.152 306.19 810.152 304.846V302.638ZM838.11 306.694H842.742V307.774H838.11V306.694ZM838.11 310.822H842.742V311.902H838.11V310.822ZM826.134 303.766H838.254V304.87H826.134V303.766ZM832.206 306.166C833.166 306.166 833.998 306.326 834.702 306.646C835.406 306.966 835.958 307.414 836.358 307.99C836.758 308.55 836.958 309.222 836.958 310.006C836.958 310.774 836.758 311.446 836.358 312.022C835.958 312.598 835.406 313.038 834.702 313.342C833.998 313.646 833.166 313.798 832.206 313.798C831.278 313.798 830.454 313.646 829.734 313.342C829.03 313.038 828.478 312.598 828.078 312.022C827.678 311.446 827.478 310.774 827.478 310.006C827.478 309.222 827.678 308.55 828.078 307.99C828.478 307.414 829.03 306.966 829.734 306.646C830.454 306.326 831.278 306.166 832.206 306.166ZM832.206 307.198C831.166 307.198 830.318 307.462 829.662 307.99C829.022 308.502 828.702 309.174 828.702 310.006C828.702 310.822 829.022 311.494 829.662 312.022C830.318 312.534 831.166 312.79 832.206 312.79C833.262 312.79 834.118 312.534 834.774 312.022C835.43 311.494 835.758 310.822 835.758 310.006C835.758 309.174 835.43 308.502 834.774 307.99C834.118 307.462 833.262 307.198 832.206 307.198ZM831.606 301.222H832.878V304.318H831.606V301.222ZM842.238 301.438H843.534V314.014H842.238V301.438ZM829.998 314.998H831.27V317.614H842.262V314.998H843.534V322.51H829.998V314.998ZM831.27 318.67V321.43H842.262V318.67H831.27Z" fill="#816458"/>
<circle cx="670.699" cy="452" r="10" fill="#816458"/>
<path d="M621.786 482.976H623.058V487.752H621.786V482.976ZM631.338 472.32H632.61V488.64H631.338V472.32ZM618.522 492.072H633.186V493.176H618.522V492.072ZM618.522 487.008H619.794V492.384H618.522V487.008ZM615.474 483.576L615.282 482.472C616.61 482.472 618.058 482.464 619.626 482.448C621.194 482.416 622.794 482.36 624.426 482.28C626.074 482.184 627.658 482.04 629.178 481.848L629.298 482.808C627.762 483.048 626.17 483.224 624.522 483.336C622.89 483.448 621.298 483.52 619.746 483.552C618.194 483.568 616.77 483.576 615.474 483.576ZM626.802 485.088H631.746V486.096H626.802V485.088ZM622.266 473.256C623.322 473.256 624.242 473.408 625.026 473.712C625.81 474.016 626.418 474.448 626.85 475.008C627.282 475.552 627.498 476.2 627.498 476.952C627.498 477.688 627.282 478.336 626.85 478.896C626.418 479.456 625.81 479.888 625.026 480.192C624.242 480.48 623.322 480.624 622.266 480.624C621.242 480.624 620.33 480.48 619.53 480.192C618.746 479.888 618.138 479.456 617.706 478.896C617.274 478.336 617.058 477.688 617.058 476.952C617.058 476.2 617.274 475.552 617.706 475.008C618.138 474.448 618.746 474.016 619.53 473.712C620.33 473.408 621.242 473.256 622.266 473.256ZM622.266 474.264C621.082 474.264 620.114 474.512 619.362 475.008C618.626 475.504 618.258 476.152 618.258 476.952C618.258 477.736 618.626 478.376 619.362 478.872C620.114 479.368 621.082 479.616 622.266 479.616C623.45 479.616 624.41 479.368 625.146 478.872C625.882 478.376 626.25 477.736 626.25 476.952C626.25 476.408 626.082 475.936 625.746 475.536C625.41 475.136 624.946 474.824 624.354 474.6C623.762 474.376 623.066 474.264 622.266 474.264ZM652.672 472.32H653.944V484.944H652.672V472.32ZM653.608 477.984H657.304V479.088H653.608V477.984ZM646.864 473.784H648.208C648.208 475.528 647.792 477.112 646.96 478.536C646.144 479.944 644.984 481.16 643.48 482.184C641.976 483.208 640.192 484.008 638.128 484.584L637.6 483.552C639.504 483.008 641.144 482.288 642.52 481.392C643.912 480.496 644.984 479.448 645.736 478.248C646.488 477.032 646.864 475.696 646.864 474.24V473.784ZM638.488 473.784H647.512V474.864H638.488V473.784ZM640.288 485.976H653.944V493.704H652.672V487.08H640.288V485.976ZM665.079 474.288H666.135V478.56C666.135 479.648 665.967 480.728 665.631 481.8C665.295 482.872 664.839 483.88 664.263 484.824C663.703 485.752 663.063 486.584 662.343 487.32C661.639 488.04 660.911 488.616 660.159 489.048L659.367 488.016C660.055 487.648 660.743 487.136 661.431 486.48C662.119 485.808 662.735 485.04 663.279 484.176C663.823 483.312 664.255 482.408 664.575 481.464C664.911 480.504 665.079 479.536 665.079 478.56V474.288ZM665.271 474.288H666.327V478.56C666.327 479.488 666.487 480.416 666.807 481.344C667.143 482.256 667.583 483.12 668.127 483.936C668.687 484.752 669.303 485.48 669.975 486.12C670.663 486.744 671.351 487.232 672.039 487.584L671.223 488.616C670.471 488.2 669.743 487.648 669.039 486.96C668.335 486.272 667.695 485.48 667.119 484.584C666.559 483.672 666.111 482.704 665.775 481.68C665.439 480.656 665.271 479.616 665.271 478.56V474.288ZM674.535 472.32H675.831V493.704H674.535V472.32ZM675.495 481.248H679.575V482.352H675.495V481.248Z" fill="#816458"/>
<circle cx="620.35" cy="578" r="10" fill="#816458"/>
<path d="M545.558 599.376H559.454V600.48H545.558V599.376ZM543.014 607.2H562.43V608.28H543.014V607.2ZM552.062 607.896H553.334V613.272H552.062V607.896ZM558.518 599.376H559.766V600.864C559.766 601.728 559.734 602.72 559.67 603.84C559.606 604.944 559.398 606.248 559.046 607.752L557.798 607.584C558.166 606.112 558.374 604.84 558.422 603.768C558.486 602.68 558.518 601.712 558.518 600.864V599.376ZM545.078 612.72H559.958V619.704H558.686V613.824H545.078V612.72ZM566.244 600.264H575.964V609.984H566.244V600.264ZM574.74 601.344H567.468V608.928H574.74V601.344ZM581.196 598.344H582.492V613.8H581.196V598.344ZM569.052 617.76H583.212V618.864H569.052V617.76ZM569.052 612.288H570.324V618.168H569.052V612.288ZM587.17 609.768H606.49V610.848H587.17V609.768ZM589.762 618.072H604.378V619.176H589.762V618.072ZM589.762 613.008H591.058V618.384H589.762V613.008ZM596.818 599.088C598.338 599.088 599.65 599.256 600.754 599.592C601.858 599.928 602.714 600.408 603.322 601.032C603.93 601.64 604.234 602.384 604.234 603.264C604.234 604.144 603.93 604.896 603.322 605.52C602.714 606.144 601.858 606.624 600.754 606.96C599.65 607.296 598.338 607.464 596.818 607.464C595.314 607.464 594.01 607.296 592.906 606.96C591.802 606.624 590.946 606.144 590.338 605.52C589.73 604.896 589.426 604.144 589.426 603.264C589.426 602.384 589.73 601.64 590.338 601.032C590.946 600.408 591.802 599.928 592.906 599.592C594.01 599.256 595.314 599.088 596.818 599.088ZM596.818 600.168C595.618 600.168 594.562 600.296 593.65 600.552C592.738 600.808 592.026 601.168 591.514 601.632C591.002 602.08 590.746 602.624 590.746 603.264C590.746 603.904 591.002 604.456 591.514 604.92C592.026 605.384 592.738 605.744 593.65 606C594.562 606.256 595.618 606.384 596.818 606.384C598.05 606.384 599.122 606.256 600.034 606C600.946 605.744 601.65 605.384 602.146 604.92C602.658 604.456 602.914 603.904 602.914 603.264C602.914 602.624 602.658 602.08 602.146 601.632C601.65 601.168 600.946 600.808 600.034 600.552C599.122 600.296 598.05 600.168 596.818 600.168ZM625.928 598.32H627.152V611.928H625.928V598.32ZM621.896 604.44H626.336V605.544H621.896V604.44ZM621.272 598.752H622.496V611.136H621.272V598.752ZM609.128 601.08H620.264V602.16H609.128V601.08ZM614.72 603.504C615.616 603.504 616.4 603.656 617.072 603.96C617.76 604.248 618.288 604.664 618.656 605.208C619.04 605.752 619.232 606.392 619.232 607.128C619.232 607.864 619.04 608.504 618.656 609.048C618.288 609.592 617.76 610.016 617.072 610.32C616.4 610.608 615.616 610.752 614.72 610.752C613.824 610.752 613.032 610.608 612.344 610.32C611.672 610.016 611.144 609.592 610.76 609.048C610.392 608.504 610.208 607.864 610.208 607.128C610.208 606.392 610.392 605.752 610.76 605.208C611.144 604.664 611.672 604.248 612.344 603.96C613.032 603.656 613.824 603.504 614.72 603.504ZM614.72 604.536C613.712 604.536 612.896 604.776 612.272 605.256C611.664 605.736 611.36 606.36 611.36 607.128C611.36 607.896 611.664 608.52 612.272 609C612.896 609.48 613.712 609.72 614.72 609.72C615.712 609.72 616.52 609.48 617.144 609C617.768 608.52 618.08 607.896 618.08 607.128C618.08 606.36 617.768 605.736 617.144 605.256C616.52 604.776 615.712 604.536 614.72 604.536ZM614.096 598.44H615.344V601.536H614.096V598.44ZM620.264 612.384C622.472 612.384 624.192 612.704 625.424 613.344C626.656 613.968 627.272 614.864 627.272 616.032C627.272 617.184 626.656 618.072 625.424 618.696C624.192 619.32 622.472 619.632 620.264 619.632C618.072 619.632 616.36 619.32 615.128 618.696C613.896 618.072 613.28 617.184 613.28 616.032C613.28 614.864 613.896 613.968 615.128 613.344C616.36 612.704 618.072 612.384 620.264 612.384ZM620.288 613.44C618.512 613.44 617.104 613.672 616.064 614.136C615.024 614.584 614.504 615.216 614.504 616.032C614.504 616.832 615.024 617.464 616.064 617.928C617.104 618.392 618.512 618.624 620.288 618.624C622.032 618.624 623.424 618.392 624.464 617.928C625.504 617.464 626.024 616.832 626.024 616.032C626.024 615.216 625.504 614.584 624.464 614.136C623.424 613.672 622.032 613.44 620.288 613.44Z" fill="#816458"/>
<circle cx="197.67" cy="578.445" r="10" fill="#816458"/>
<path d="M135.31 598.765H136.606V620.149H135.31V598.765ZM136.27 607.813H140.35V608.917H136.27V607.813ZM120.214 602.317H132.934V603.421H120.214V602.317ZM126.718 605.533C127.694 605.533 128.566 605.741 129.334 606.157C130.102 606.557 130.702 607.117 131.134 607.837C131.566 608.557 131.782 609.389 131.782 610.333C131.782 611.277 131.566 612.117 131.134 612.853C130.702 613.573 130.102 614.133 129.334 614.533C128.566 614.933 127.694 615.133 126.718 615.133C125.726 615.133 124.846 614.933 124.078 614.533C123.31 614.133 122.71 613.573 122.278 612.853C121.846 612.117 121.63 611.277 121.63 610.333C121.63 609.389 121.846 608.557 122.278 607.837C122.71 607.117 123.31 606.557 124.078 606.157C124.846 605.741 125.726 605.533 126.718 605.533ZM126.718 606.637C125.966 606.637 125.294 606.797 124.702 607.117C124.126 607.437 123.67 607.877 123.334 608.437C122.998 608.997 122.83 609.629 122.83 610.333C122.83 611.037 122.998 611.669 123.334 612.229C123.67 612.789 124.126 613.229 124.702 613.549C125.294 613.869 125.966 614.029 126.718 614.029C127.454 614.029 128.11 613.869 128.686 613.549C129.278 613.229 129.734 612.789 130.054 612.229C130.39 611.669 130.558 611.037 130.558 610.333C130.558 609.629 130.39 608.997 130.054 608.437C129.734 607.877 129.278 607.437 128.686 607.117C128.11 606.797 127.454 606.637 126.718 606.637ZM126.022 598.957H127.294V602.917H126.022V598.957ZM158.324 607.549H162.356V608.677H158.324V607.549ZM157.388 598.741H158.684V620.149H157.388V598.741ZM143.396 600.877H144.668V614.125H143.396V600.877ZM143.396 613.525H145.004C146.62 613.525 148.244 613.453 149.876 613.309C151.524 613.165 153.244 612.901 155.036 612.517L155.228 613.645C153.372 614.013 151.62 614.269 149.972 614.413C148.324 614.541 146.668 614.605 145.004 614.605H143.396V613.525ZM164.49 610.213H183.81V611.293H164.49V610.213ZM167.082 618.517H181.698V619.621H167.082V618.517ZM167.082 613.453H168.378V618.829H167.082V613.453ZM174.138 599.533C175.658 599.533 176.97 599.701 178.074 600.037C179.178 600.373 180.034 600.853 180.642 601.477C181.25 602.085 181.554 602.829 181.554 603.709C181.554 604.589 181.25 605.341 180.642 605.965C180.034 606.589 179.178 607.069 178.074 607.405C176.97 607.741 175.658 607.909 174.138 607.909C172.634 607.909 171.33 607.741 170.226 607.405C169.122 607.069 168.266 606.589 167.658 605.965C167.05 605.341 166.746 604.589 166.746 603.709C166.746 602.829 167.05 602.085 167.658 601.477C168.266 600.853 169.122 600.373 170.226 600.037C171.33 599.701 172.634 599.533 174.138 599.533ZM174.138 600.613C172.938 600.613 171.882 600.741 170.97 600.997C170.058 601.253 169.346 601.613 168.834 602.077C168.322 602.525 168.066 603.069 168.066 603.709C168.066 604.349 168.322 604.901 168.834 605.365C169.346 605.829 170.058 606.189 170.97 606.445C171.882 606.701 172.938 606.829 174.138 606.829C175.37 606.829 176.442 606.701 177.354 606.445C178.266 606.189 178.97 605.829 179.466 605.365C179.978 604.901 180.234 604.349 180.234 603.709C180.234 603.069 179.978 602.525 179.466 602.077C178.97 601.613 178.266 601.253 177.354 600.997C176.442 600.741 175.37 600.613 174.138 600.613ZM203.248 598.765H204.472V612.373H203.248V598.765ZM199.216 604.885H203.656V605.989H199.216V604.885ZM198.592 599.197H199.816V611.581H198.592V599.197ZM186.448 601.525H197.584V602.605H186.448V601.525ZM192.04 603.949C192.936 603.949 193.72 604.101 194.392 604.405C195.08 604.693 195.608 605.109 195.976 605.653C196.36 606.197 196.552 606.837 196.552 607.573C196.552 608.309 196.36 608.949 195.976 609.493C195.608 610.037 195.08 610.461 194.392 610.765C193.72 611.053 192.936 611.197 192.04 611.197C191.144 611.197 190.352 611.053 189.664 610.765C188.992 610.461 188.464 610.037 188.08 609.493C187.712 608.949 187.528 608.309 187.528 607.573C187.528 606.837 187.712 606.197 188.08 605.653C188.464 605.109 188.992 604.693 189.664 604.405C190.352 604.101 191.144 603.949 192.04 603.949ZM192.04 604.981C191.032 604.981 190.216 605.221 189.592 605.701C188.984 606.181 188.68 606.805 188.68 607.573C188.68 608.341 188.984 608.965 189.592 609.445C190.216 609.925 191.032 610.165 192.04 610.165C193.032 610.165 193.84 609.925 194.464 609.445C195.088 608.965 195.4 608.341 195.4 607.573C195.4 606.805 195.088 606.181 194.464 605.701C193.84 605.221 193.032 604.981 192.04 604.981ZM191.416 598.885H192.664V601.981H191.416V598.885ZM197.584 612.829C199.792 612.829 201.512 613.149 202.744 613.789C203.976 614.413 204.592 615.309 204.592 616.477C204.592 617.629 203.976 618.517 202.744 619.141C201.512 619.765 199.792 620.077 197.584 620.077C195.392 620.077 193.68 619.765 192.448 619.141C191.216 618.517 190.6 617.629 190.6 616.477C190.6 615.309 191.216 614.413 192.448 613.789C193.68 613.149 195.392 612.829 197.584 612.829ZM197.608 613.885C195.832 613.885 194.424 614.117 193.384 614.581C192.344 615.029 191.824 615.661 191.824 616.477C191.824 617.277 192.344 617.909 193.384 618.373C194.424 618.837 195.832 619.069 197.608 619.069C199.352 619.069 200.744 618.837 201.784 618.373C202.824 617.909 203.344 617.277 203.344 616.477C203.344 615.661 202.824 615.029 201.784 614.581C200.744 614.117 199.352 613.885 197.608 613.885Z" fill="#816458"/>
<rect x="661.479" y="316.752" width="46" height="46" rx="3" stroke="#816458" stroke-width="2"/>
<path d="M674.379 354.492V325.012H683.299C685.512 325.012 687.459 325.306 689.139 325.892C690.819 326.452 692.139 327.386 693.099 328.692C694.086 329.972 694.579 331.732 694.579 333.972C694.579 336.106 694.099 337.866 693.139 339.252C692.179 340.612 690.859 341.639 689.179 342.332C687.526 342.999 685.619 343.332 683.459 343.332H679.019V354.492H674.379ZM679.019 339.572H683.059C685.379 339.572 687.112 339.119 688.259 338.212C689.406 337.306 689.979 335.892 689.979 333.972C689.979 331.999 689.379 330.639 688.179 329.892C686.979 329.146 685.206 328.772 682.859 328.772H679.019V339.572Z" fill="#816458"/>
<path d="M652.158 384.016H653.286V385.096C653.286 385.864 653.118 386.584 652.782 387.256C652.446 387.928 651.99 388.544 651.414 389.104C650.838 389.664 650.19 390.16 649.47 390.592C648.75 391.024 648.006 391.384 647.238 391.672C646.47 391.96 645.718 392.176 644.982 392.32L644.454 391.288C645.094 391.192 645.766 391.016 646.47 390.76C647.174 390.488 647.862 390.168 648.534 389.8C649.206 389.416 649.814 388.984 650.358 388.504C650.918 388.008 651.358 387.48 651.678 386.92C651.998 386.344 652.158 385.736 652.158 385.096V384.016ZM652.422 384.016H653.526V385.096C653.526 385.736 653.686 386.344 654.006 386.92C654.342 387.48 654.782 388.008 655.326 388.504C655.87 388.984 656.478 389.416 657.15 389.8C657.822 390.168 658.51 390.488 659.214 390.76C659.934 391.016 660.606 391.192 661.23 391.288L660.726 392.32C660.006 392.176 659.254 391.96 658.47 391.672C657.702 391.384 656.958 391.024 656.238 390.592C655.518 390.16 654.87 389.664 654.294 389.104C653.718 388.544 653.262 387.928 652.926 387.256C652.59 386.584 652.422 385.864 652.422 385.096V384.016ZM652.206 395.104H653.454V403.432H652.206V395.104ZM643.182 394.48H662.526V395.584H643.182V394.48ZM645.054 383.536H660.606V384.616H645.054V383.536ZM670.804 386.872H671.836V389.152C671.836 390.272 671.676 391.352 671.356 392.392C671.052 393.432 670.62 394.392 670.06 395.272C669.5 396.152 668.868 396.928 668.164 397.6C667.476 398.272 666.74 398.816 665.956 399.232L665.188 398.224C665.924 397.856 666.628 397.368 667.3 396.76C667.972 396.136 668.572 395.424 669.1 394.624C669.628 393.824 670.044 392.96 670.348 392.032C670.652 391.088 670.804 390.128 670.804 389.152V386.872ZM670.996 386.872H672.028V389.152C672.028 390.08 672.172 390.984 672.46 391.864C672.764 392.728 673.164 393.544 673.66 394.312C674.172 395.08 674.748 395.768 675.388 396.376C676.044 396.968 676.74 397.448 677.476 397.816L676.708 398.8C675.924 398.4 675.188 397.872 674.5 397.216C673.828 396.56 673.228 395.808 672.7 394.96C672.172 394.112 671.756 393.2 671.452 392.224C671.148 391.232 670.996 390.208 670.996 389.152V386.872ZM665.692 385.912H677.068V386.992H665.692V385.912ZM670.78 382.384H672.052V386.56H670.78V382.384ZM680.236 382.072H681.532V403.456H680.236V382.072ZM681.196 391.144H685.276V392.224H681.196V391.144ZM692.93 384.304H693.986V386.272C693.986 387.552 693.722 388.728 693.194 389.8C692.666 390.872 691.954 391.8 691.058 392.584C690.162 393.368 689.162 393.976 688.058 394.408L687.386 393.376C688.394 393.008 689.314 392.48 690.146 391.792C690.994 391.088 691.666 390.264 692.162 389.32C692.674 388.376 692.93 387.36 692.93 386.272V384.304ZM693.122 384.304H694.202V386.248C694.202 387.24 694.442 388.168 694.922 389.032C695.402 389.896 696.042 390.656 696.842 391.312C697.658 391.952 698.562 392.448 699.554 392.8L698.93 393.808C697.842 393.424 696.858 392.864 695.978 392.128C695.114 391.392 694.418 390.52 693.89 389.512C693.378 388.504 693.122 387.416 693.122 386.248V384.304ZM687.842 383.728H699.218V384.832H687.842V383.728ZM702.53 382.072H703.802V395.08H702.53V382.072ZM703.466 387.808H707.162V388.912H703.466V387.808ZM697.082 395.776C698.522 395.776 699.754 395.928 700.778 396.232C701.818 396.536 702.61 396.968 703.154 397.528C703.714 398.072 703.994 398.752 703.994 399.568C703.994 400.368 703.714 401.056 703.154 401.632C702.61 402.208 701.818 402.64 700.778 402.928C699.754 403.232 698.522 403.384 697.082 403.384C695.658 403.384 694.426 403.232 693.386 402.928C692.362 402.64 691.57 402.208 691.01 401.632C690.466 401.056 690.194 400.368 690.194 399.568C690.194 398.752 690.466 398.072 691.01 397.528C691.57 396.968 692.362 396.536 693.386 396.232C694.426 395.928 695.658 395.776 697.082 395.776ZM697.082 396.832C695.946 396.832 694.954 396.944 694.106 397.168C693.258 397.392 692.602 397.712 692.138 398.128C691.674 398.528 691.442 399.008 691.442 399.568C691.442 400.128 691.674 400.616 692.138 401.032C692.602 401.448 693.258 401.768 694.106 401.992C694.954 402.216 695.946 402.328 697.082 402.328C698.234 402.328 699.234 402.216 700.082 401.992C700.946 401.768 701.602 401.448 702.05 401.032C702.514 400.616 702.746 400.128 702.746 399.568C702.746 399.008 702.514 398.528 702.05 398.128C701.602 397.712 700.946 397.392 700.082 397.168C699.234 396.944 698.234 396.832 697.082 396.832Z" fill="#816458"/>
<defs>
<linearGradient id="paint0_linear_209_104" x1="106.959" y1="298.917" x2="755.214" y2="298.917" gradientUnits="userSpaceOnUse">
<stop stop-color="#F9F9F9"/>
<stop offset="0.22362" stop-color="#A9AE9B"/>
<stop offset="0.799391" stop-color="#A9AE9B"/>
</linearGradient>
<linearGradient id="paint1_linear_209_104" x1="400.131" y1="160.316" x2="231.41" y2="665.443" gradientUnits="userSpaceOnUse">
<stop stop-color="#F9F9F9"/>
<stop offset="0.22362" stop-color="#A9AE9B"/>
<stop offset="0.799391" stop-color="#A9AE9B"/>
<stop offset="1" stop-color="#F9F9F9" stop-opacity="0.1"/>
</linearGradient>
<linearGradient id="paint2_linear_209_104" x1="793.246" y1="160.331" x2="632.521" y2="696.857" gradientUnits="userSpaceOnUse">
<stop stop-color="#F9F9F9"/>
<stop offset="0.22362" stop-color="#A9AE9B"/>
<stop offset="0.799391" stop-color="#A9AE9B"/>
<stop offset="1" stop-color="#F9F9F9" stop-opacity="0.1"/>
</linearGradient>
<linearGradient id="paint3_linear_209_104" x1="58.9707" y1="557.5" x2="789.971" y2="557.5" gradientUnits="userSpaceOnUse">
<stop stop-color="#F9F9F9"/>
<stop offset="0.22362" stop-color="#A9AE9B"/>
<stop offset="0.869335" stop-color="#A9AE9B"/>
<stop offset="1" stop-color="#F9F9F9" stop-opacity="0.1"/>
</linearGradient>
</defs>
</svg>
